<?xml version="1.0" encoding="iso-8859-1"?>
<!-- Uploaded to: SVG Repo, www.svgrepo.com, Generator: SVG Repo Mixer Tools -->
<svg height="800px" width="800px" version="1.1" id="Layer_1" xmlns="http://www.w3.org/2000/svg" xmlns:xlink="http://www.w3.org/1999/xlink" 
	 viewBox="0 0 392.581 392.581" xml:space="preserve">
<g>
	<path style="fill:#FFFFFF;" d="M255.16,174.541c-0.388,10.796-1.487,21.398-3.038,31.741l41.632,13.834
		c6.335-14.545,10.15-29.737,11.313-45.576H255.16z"/>
	<path style="fill:#FFFFFF;" d="M255.16,152.755h49.842c-1.745-23.337-9.18-45.123-20.945-63.935
		c-12.154,2.715-24.436,4.978-36.719,6.788C251.733,113.192,254.448,132.327,255.16,152.755z"/>
	<path style="fill:#FFFFFF;" d="M219.669,33.353c8.339,11.378,15.515,25.277,21.269,41.115c9.568-1.422,19.135-3.038,28.768-4.978
		C255.935,54.105,238.933,41.693,219.669,33.353z"/>
	<path style="fill:#FFFFFF;" d="M174.61,23.656v56.307c14.675-0.323,29.414-1.228,44.024-2.715
		C207.838,49.45,192.259,29.604,174.61,23.656z"/>
	<path style="fill:#FFFFFF;" d="M210.812,267.05l-6.335-19.006c-9.956-0.776-19.911-1.228-29.931-1.487v56.889
		C187.863,299.05,200.533,286.315,210.812,267.05z"/>
	<path style="fill:#FFFFFF;" d="M219.733,293.943L219.733,293.943L219.733,293.943L219.733,293.943z"/>
	<path style="fill:#FFFFFF;" d="M174.61,152.755h58.699c-0.776-19.329-3.556-37.689-7.887-54.238
		c-16.937,1.875-33.875,2.909-50.877,3.232L174.61,152.755L174.61,152.755z"/>
	<path style="fill:#FFFFFF;" d="M203.507,190.186l27.604,9.18c1.099-8.145,1.875-16.356,2.133-24.824h-58.699v50.295
		c7.499,0.129,14.933,0.453,22.432,0.905l-7.305-21.721C186.958,194.84,194.263,187.212,203.507,190.186z"/>
	<path style="fill:#FFFFFF;" d="M72.21,174.541H22.303c1.745,23.079,9.051,44.735,20.622,63.418
		c12.218-2.715,24.566-5.107,36.848-6.982C75.572,213.652,72.921,194.646,72.21,174.541z"/>
	<path style="fill:#FFFFFF;" d="M22.303,152.755h49.842c0.711-20.428,3.426-39.564,7.822-57.083
		c-12.283-1.875-24.566-4.202-36.719-6.788C31.483,107.632,24.113,129.418,22.303,152.755z"/>
	<path style="fill:#FFFFFF;" d="M107.442,293.879c-8.404-11.507-15.709-25.6-21.333-41.632c-9.632,1.422-19.329,3.168-28.897,5.107
		C70.982,272.869,88.178,285.41,107.442,293.879z"/>
	<path style="fill:#FFFFFF;" d="M108.735,77.248c14.61,1.487,29.349,2.392,44.024,2.715V23.656
		C135.111,29.604,119.467,49.45,108.735,77.248z"/>
	<path style="fill:#FFFFFF;" d="M57.729,69.62c9.503,1.939,19.071,3.556,28.768,4.978c5.689-15.903,12.929-29.802,21.269-41.18
		C88.436,41.693,71.37,54.17,57.729,69.62z"/>
	<path style="fill:#FFFFFF;" d="M152.76,174.541H94.061c0.776,19.071,3.491,37.172,7.758,53.527
		c16.937-1.939,34.004-2.909,51.071-3.232v-50.295L152.76,174.541L152.76,174.541z"/>
	<path style="fill:#FFFFFF;" d="M152.76,303.64v-56.954c-14.804,0.323-29.608,1.164-44.283,2.715
		C119.208,277.523,134.982,297.693,152.76,303.64z"/>
	<path style="fill:#FFFFFF;" d="M152.76,101.749c-17.002-0.323-34.004-1.422-50.877-3.232c-4.331,16.549-7.111,34.909-7.887,54.238
		h58.699v-51.006H152.76z"/>
</g>
<path style="fill:#56ACE0;" d="M217.277,217.725l44.606,133.366l14.675-34.133c1.681-4.913,10.925-10.408,17.713-3.426
	l45.446,45.253l19.071-19.071l-45.382-45.253c-4.848-5.301-4.848-13.446,3.426-17.778l34.133-14.61L217.277,217.725z"/>
<path style="fill:#194F82;" d="M385.099,250.566l-70.659-23.467c8.404-19.911,12.8-41.632,12.8-63.418
	c0-90.246-73.438-163.556-163.556-163.556C73.438,0.125,0,73.564,0,163.681c0,90.246,73.438,163.556,163.556,163.556
	c21.915,0,43.119-4.331,62.966-12.671l23.596,70.529c4.59,11.313,18.101,7.952,20.299,0.84l19.653-45.64l41.697,41.632
	c4.267,4.267,11.119,4.267,15.386,0l34.521-34.457c3.685-3.103,4.848-11.119,0-15.451l-41.697-41.568l45.77-19.523
	C395.249,266.404,394.667,253.669,385.099,250.566z M316.897,276.812c-8.275,4.331-8.275,12.347-3.426,17.778l45.382,45.253
	l-19.071,19.071l-45.446-45.253c-6.788-7.046-15.968-1.552-17.713,3.426l-14.675,34.133l-44.606-133.366l133.689,44.412
	L316.897,276.812z M219.733,293.943L219.733,293.943L219.733,293.943L219.733,293.943z M189.673,204.02l7.24,21.786
	c-7.499-0.453-14.933-0.776-22.432-0.905v-50.295h58.699c-0.323,8.404-1.164,16.679-2.133,24.824l-27.604-9.244
	C194.263,187.212,186.958,194.84,189.673,204.02z M225.487,98.517c4.331,16.549,7.111,34.909,7.887,54.238h-58.699v-51.006
	C191.547,101.426,208.549,100.392,225.487,98.517z M174.61,79.964V23.656c17.648,5.883,33.293,25.729,44.024,53.657
	C203.96,78.735,189.285,79.64,174.61,79.964z M252.121,206.283c1.552-10.343,2.651-20.945,3.038-31.741h49.907
	c-1.164,15.838-4.913,31.16-11.313,45.576L252.121,206.283z M305.067,152.755h-49.842c-0.711-20.428-3.426-39.564-7.822-57.083
	c12.283-1.875,24.566-4.202,36.719-6.788C295.758,107.632,303.257,129.418,305.067,152.755z M240.937,74.469
	c-5.689-15.838-12.929-29.737-21.269-41.115c19.265,8.339,36.267,20.687,49.972,36.137
	C260.073,71.495,250.505,73.111,240.937,74.469z M174.61,246.622c9.956,0.259,19.911,0.711,29.931,1.487l6.335,19.006
	c-10.279,19.2-22.949,31.935-36.267,36.461V246.622L174.61,246.622z M22.303,174.541h49.842c0.711,20.105,3.426,39.111,7.628,56.436
	c-12.347,1.875-24.63,4.267-36.848,6.982C31.418,219.277,24.113,197.685,22.303,174.541z M101.754,228.069
	c-4.267-16.356-6.982-34.457-7.758-53.527h58.699v50.295C135.758,225.159,118.691,226.258,101.754,228.069z M152.76,246.622v57.018
	c-17.778-5.947-33.552-26.053-44.283-54.238C123.216,247.85,138.02,246.945,152.76,246.622z M93.996,152.755
	c0.776-19.329,3.556-37.689,7.887-54.238c16.937,1.875,33.875,2.909,50.877,3.232v51.006H93.996z M86.368,74.533
	c-9.632-1.422-19.265-3.103-28.768-4.978c13.77-15.451,30.772-27.927,49.972-36.267C99.297,44.796,92.121,58.695,86.368,74.533z
	 M80.032,95.673c-4.396,17.519-7.111,36.719-7.822,57.083H22.303c1.745-23.337,9.18-45.123,20.945-63.935
	C55.467,91.471,67.685,93.798,80.032,95.673z M86.109,252.117c5.689,16.097,12.929,30.125,21.333,41.632
	c-19.394-8.404-36.461-20.945-50.23-36.655C66.909,255.285,76.477,253.604,86.109,252.117z M152.76,79.964
	c-14.675-0.323-29.414-1.164-44.024-2.715c10.731-27.798,26.44-47.709,44.024-53.657V79.964z"/>
<g>
	<path style="fill:#FFC10D;" d="M243.459,74.081c-1.293-1.164-2.65-2.327-4.008-3.491c0.453,1.293,1.034,2.521,1.552,3.879
		C241.778,74.404,242.618,74.275,243.459,74.081z"/>
	<path style="fill:#FFC10D;" d="M174.61,101.749v51.006h58.699c-0.776-19.329-3.556-37.689-7.887-54.238
		C208.549,100.392,191.547,101.426,174.61,101.749z"/>
	<path style="fill:#FFC10D;" d="M233.374,174.541h-58.699v50.295c7.499,0.129,14.933,0.453,22.432,0.905l-7.37-21.721
		c-2.715-9.115,4.59-16.743,13.77-13.834l27.604,9.18C232.21,191.22,232.986,182.945,233.374,174.541z"/>
	<path style="fill:#FFC10D;" d="M218.57,77.248c-3.685-9.762-8.145-18.489-12.994-26.053c-9.826-3.685-20.234-6.077-31.095-7.046
		v35.749C189.285,79.64,203.96,78.735,218.57,77.248z"/>
	<path style="fill:#FFC10D;" d="M83.2,252.699c1.552,1.422,3.103,2.715,4.655,4.008c-0.517-1.487-1.164-2.909-1.681-4.461
		C85.139,252.311,84.234,252.505,83.2,252.699z"/>
	<path style="fill:#FFC10D;" d="M252.121,206.283l20.881,6.982c5.56-12.283,8.986-25.277,10.214-38.723H255.16
		C254.772,185.337,253.673,195.939,252.121,206.283z"/>
	<path style="fill:#FFC10D;" d="M255.16,152.755h27.992c-2.004-22.044-9.956-42.408-22.303-59.41
		c-4.461,0.776-8.986,1.616-13.511,2.263C251.733,113.192,254.448,132.327,255.16,152.755z"/>
	<path style="fill:#FFC10D;" d="M174.61,246.622v36.461c10.602-0.905,20.881-3.168,30.772-6.853c1.875-2.844,3.685-5.883,5.495-9.18
		l-6.335-19.006C194.457,247.333,184.501,246.881,174.61,246.622z"/>
	<path style="fill:#FFC10D;" d="M108.477,249.402c3.814,10.02,8.275,19.006,13.188,26.634c9.826,3.685,20.234,6.077,31.095,7.111
		v-36.461C138.02,246.945,123.216,247.85,108.477,249.402z"/>
	<path style="fill:#FFC10D;" d="M72.21,152.755c0.711-20.428,3.426-39.564,7.822-57.083c-4.59-0.711-9.051-1.487-13.511-2.263
		c-12.347,17.002-20.299,37.301-22.303,59.41H72.21V152.755z"/>
	<path style="fill:#FFC10D;" d="M72.21,174.541H44.154c2.004,21.786,9.826,41.956,21.851,58.828c4.59-0.84,9.18-1.681,13.77-2.392
		C75.572,213.652,72.921,194.646,72.21,174.541z"/>
	<path style="fill:#FFC10D;" d="M152.76,44.214c-10.796,1.034-21.269,3.426-31.095,7.046c-4.848,7.564-9.18,16.291-12.994,26.053
		c14.61,1.487,29.349,2.392,44.024,2.715V44.214H152.76z"/>
	<path style="fill:#FFC10D;" d="M152.76,174.541H94.061c0.776,19.071,3.491,37.172,7.758,53.527
		c16.937-1.939,34.004-2.909,51.071-3.232v-50.295L152.76,174.541L152.76,174.541z"/>
	<path style="fill:#FFC10D;" d="M152.76,101.749c-17.002-0.323-34.004-1.422-50.877-3.232c-4.331,16.549-7.111,34.909-7.887,54.238
		h58.699v-51.006H152.76z"/>
	<path style="fill:#FFC10D;" d="M87.984,70.59c-1.422,1.164-2.78,2.327-4.073,3.556c0.84,0.129,1.681,0.323,2.521,0.388
		C86.885,73.24,87.467,71.947,87.984,70.59z"/>
</g>
</svg>